PathFileType	4	(X/Y/Z)	C:\Users\Basilio\Documents\Thesis Gigler\squatting_fais\c3dfiles\058\SJ_pre2\markers_experimental.trc
DataRate	CameraRate	NumFrames	NumMarkers	Units	OrigDataRate	OrigDataStartFrame	OrigNumFrames
200.000000	200.000000	4	61	mm	200.000000	1113	1272
Frame#	Time	FHD			LBHD			RBHD			C7			T10			CLAV			LSHO			LUUPA			LMUPA			LDUPA			LLEP			LMEP			LRAD			LUL			LRFIN			RSHO			RUPA1			RMUPA			RDUPA			RLEP			RMEP			RRAD			RUL			RUFIN			LASI			RASI			USACR			LSACR			RSACR			LTHI1			LTHI2			LTHI3			LTHI4			LLFC			LMFC			LTIB1			LTIB2			LTIB3			LTIB4			LLMAL			LMMAL			LHEE			LMT1			LMT2			LMT5			RTHI			RTHI2			RTHI3			RTHI4			RLFC			RMFC			RTIB1			RTIB2			RTIB3			RTIB4			RLMAL			RMMAL			RHEE			RMT1			RMT2			RMT5			
		X1	Y1	Z1	X2	Y2	Z2	X3	Y3	Z3	X4	Y4	Z4	X5	Y5	Z5	X6	Y6	Z6	X7	Y7	Z7	X8	Y8	Z8	X9	Y9	Z9	X10	Y10	Z10	X11	Y11	Z11	X12	Y12	Z12	X13	Y13	Z13	X14	Y14	Z14	X15	Y15	Z15	X16	Y16	Z16	X17	Y17	Z17	X18	Y18	Z18	X19	Y19	Z19	X20	Y20	Z20	X21	Y21	Z21	X22	Y22	Z22	X23	Y23	Z23	X24	Y24	Z24	X25	Y25	Z25	X26	Y26	Z26	X27	Y27	Z27	X28	Y28	Z28	X29	Y29	Z29	X30	Y30	Z30	X31	Y31	Z31	X32	Y32	Z32	X33	Y33	Z33	X34	Y34	Z34	X35	Y35	Z35	X36	Y36	Z36	X37	Y37	Z37	X38	Y38	Z38	X39	Y39	Z39	X40	Y40	Z40	X41	Y41	Z41	X42	Y42	Z42	X43	Y43	Z43	X44	Y44	Z44	X45	Y45	Z45	X46	Y46	Z46	X47	Y47	Z47	X48	Y48	Z48	X49	Y49	Z49	X50	Y50	Z50	X51	Y51	Z51	X52	Y52	Z52	X53	Y53	Z53	X54	Y54	Z54	X55	Y55	Z55	X56	Y56	Z56	X57	Y57	Z57	X58	Y58	Z58	X59	Y59	Z59	X60	Y60	Z60	X61	Y61	Z61	

1114	5.565	-93.70727539062501	1778.59716796875	-780.8991699218752	-245.2247009277344	1705.4384765625	-849.4070434570315	-87.38059234619142	1785.279174804688	-923.5191040039065	-258.9647827148438	1574.421142578125	-868.6289672851565	-285.7772521972657	1260.896484375	-850.1638183593752	-106.3429412841797	1512.0458984375	-845.8079223632815	-102.9999313354492	1565.866088867188	-1018.364135742188	-235.0722961425782	1457.170532226563	-1185.13232421875	-207.7149047851563	1414.80517578125	-1190.96923828125	-258.3585510253907	1401.828247070313	-1221.786865234375	-292.8145141601563	1328.243896484375	-1252.465454101563	-351.4737548828126	1329.391479492188	-1204.521728515625	-265.8464355468751	1146.900756835938	-1046.948120117188	-239.9190826416016	1090.963500976563	-1101.144897460938	-191.3085327148438	1157.206298828125	-1038.151977539063	-148.5637817382813	1583.697265625	-677.7160034179689	-296.9839477539063	1464.006713867188	-534.1026000976564	-266.3784790039063	1424.765502929688	-527.9238891601564	-313.9713745117188	1404.60595703125	-498.629608154297	-346.0613403320313	1346.790649414063	-471.840057373047	-399.1173400878907	1322.034057617188	-540.2212524414064	-234.6924743652344	1160.374267578125	-629.2322998046876	-215.1592102050782	1116.632568359375	-563.7745361328126	-160.8632049560547	1137.59912109375	-651.9041748046876	-125.8698272705078	1038.041748046875	-966.4779052734377	-120.9352493286133	1041.09765625	-729.3796386718751	-303.8821716308594	1146.257568359375	-835.6282348632815	-315.1954956054688	1115.358642578125	-862.8904418945315	-312.6003417968751	1115.566040039063	-805.5527343750002	-223.1370239257813	776.046569824219	-1065.629028320313	-205.3697204589844	693.1437988281251	-1071.156494140625	-159.5248107910157	686.4200439453126	-1052.390380859375	-241.3578491210938	645.0457153320314	-1065.98193359375	-253.358627319336	544.9992065429689	-1064.381713867188	-214.6506042480469	519.6179199218751	-947.282165527344	-204.5144958496094	405.854217529297	-1055.916259765625	-268.5511474609376	379.7117309570313	-1106.45947265625	-226.8791961669922	367.1752624511719	-1090.981811523438	-228.1933288574219	282.3436279296876	-1077.2724609375	-306.6545715332032	93.5895462036133	-1102.649780273438	-261.8851928710938	93.89821624755861	-1020.223937988281	-356.2038879394532	50.6664505004883	-1044.3046875	-135.3948822021485	61.31145477294923	-1092.10302734375	-144.4352111816407	60.09029769897462	-1137.505126953125	-206.2322387695313	38.29301071166993	-1178.330200195313	-248.6274414062501	853.3815917968752	-641.9139404296876	-213.953842163086	797.9060058593752	-630.4101562500001	-180.2649230957032	796.6448364257815	-632.0614013671876	-243.7998962402344	719.1185913085939	-641.3691406250001	-247.0238647460938	539.7357788085939	-641.5302124023439	-197.1080474853516	508.9629821777345	-764.1219482421876	-197.5702209472657	322.3410949707032	-690.4343872070314	-249.8635253906251	256.5997619628907	-621.3157348632814	-212.0844726562501	244.9758758544922	-647.6255493164064	-217.0864562988282	196.0520935058594	-675.1530761718751	-290.4021911621094	95.64472961425783	-632.9443969726564	-240.1928253173829	102.7723846435547	-713.8222045898439	-338.2718505859376	49.87498855590822	-702.3955078125001	-127.9338607788086	54.66220092773439	-641.4094238281251	-141.8817749023438	61.39446258544923	-590.8961181640626	-199.3440551757813	29.103666305542	-552.3836059570314	
1115	5.57	-94.27244567871095	1778.65283203125	-780.7376708984377	-245.4369506835938	1705.4609375	-849.311706542969	-87.64631652832033	1785.280395507813	-923.4751586914065	-259.1935424804688	1574.409545898438	-868.604675292969	-285.8516845703126	1260.854125976563	-850.2062988281252	-106.5636291503907	1512.01904296875	-845.8272094726565	-103.383773803711	1565.907592773438	-1018.307678222656	-235.3157501220704	1457.204956054688	-1185.179443359375	-207.9531250000001	1414.9091796875	-1190.987060546875	-258.5511474609376	1401.856567382813	-1221.73486328125	-292.9623718261719	1328.283447265625	-1252.47265625	-351.6402282714844	1329.396728515625	-1204.5390625	-265.8170776367188	1146.910278320313	-1047.019287109375	-239.9221954345704	1091.031860351563	-1101.220458984375	-191.3275146484375	1157.219604492188	-1038.156127929688	-148.6192016601563	1583.808471679688	-677.6661376953126	-297.0310668945313	1463.895141601563	-534.0412597656251	-266.3978881835938	1424.761596679688	-527.9002685546876	-314.0108947753907	1404.499877929688	-498.511199951172	-346.0878601074219	1346.692016601563	-471.709686279297	-399.1826477050782	1321.921752929688	-540.0462036132814	-234.7091522216797	1160.372924804688	-629.2133178710939	-214.993392944336	1116.695556640625	-563.7309570312501	-160.8563842773438	1137.620483398438	-651.9486083984376	-125.7422256469727	1038.0810546875	-966.4341430664065	-121.0798034667969	1041.19775390625	-729.3383178710939	-303.9244689941407	1146.235107421875	-835.6477661132815	-315.2028808593751	1115.271362304688	-862.9080810546877	-312.5607299804688	1115.59716796875	-805.5900878906252	-222.9345855712891	776.034362792969	-1065.71142578125	-205.1362915039063	693.1024780273439	-1071.203247070313	-159.2312164306641	686.4229736328126	-1052.524291992188	-241.1414337158204	645.0092163085939	-1065.996704101563	-253.1565551757813	544.9232788085939	-1064.404907226563	-215.103500366211	518.9938354492189	-947.371032714844	-204.4404296875001	405.7788391113282	-1055.875610351563	-268.3286132812501	379.7097778320313	-1106.44921875	-226.8010406494141	367.1655578613282	-1090.92919921875	-227.9803161621094	282.4984436035157	-1077.280517578125	-306.5306396484376	93.64341735839845	-1102.678588867188	-261.8027343750001	93.92181396484376	-1020.191467285156	-356.2061157226563	50.65360260009767	-1044.332641601563	-135.308822631836	61.35311889648439	-1092.084350585938	-144.4397888183594	60.11341476440431	-1137.490966796875	-206.2777404785157	38.27634429931641	-1178.33154296875	-248.5913543701172	853.4190063476565	-641.8560180664064	-213.9957427978516	797.8867797851565	-630.4081420898439	-180.4233856201172	796.5984497070315	-632.0594482421876	-243.8595581054688	719.1845703125001	-641.3189697265626	-247.2894439697266	539.7219848632814	-641.4898681640626	-197.3480987548829	508.9659423828126	-764.1856689453126	-197.8713989257813	322.3527526855469	-690.4390258789064	-250.0081787109376	256.6423034667969	-621.3049926757814	-212.1089782714844	245.0302886962891	-647.6503295898439	-217.1720886230469	195.9462890625001	-675.1550292968751	-290.4021911621094	95.64342498779298	-632.9483032226564	-240.1661987304688	102.7774353027344	-713.8167724609376	-338.2723999023438	49.88544845581056	-702.4000244140626	-127.9187316894532	54.59234619140626	-641.3894653320314	-141.8640747070313	61.4474563598633	-590.8920898437501	-199.3670043945313	29.08144760131837	-552.3590087890626	
1116	5.575	-94.48899078369142	1778.645751953125	-780.7114257812502	-245.5120544433594	1705.486938476563	-849.2651977539065	-88.08296966552736	1785.294555664063	-923.389099121094	-259.4758300781251	1574.432495117188	-868.5743408203127	-285.9663391113282	1260.72705078125	-850.2100219726565	-106.8550033569336	1512.051025390625	-845.7896118164065	-103.7544403076172	1565.936645507813	-1018.332458496094	-235.5523529052735	1457.229736328125	-1185.152099609375	-208.1625213623047	1414.98291015625	-1190.945068359375	-258.7224121093751	1401.914794921875	-1221.76806640625	-293.1103210449219	1328.282592773438	-1252.485595703125	-351.8035888671876	1329.381103515625	-1204.497436523438	-265.8082885742188	1146.902954101563	-1047.048583984375	-239.8613586425782	1091.085693359375	-1101.309936523438	-191.2808227539063	1157.249755859375	-1038.186279296875	-148.9850616455078	1583.858764648438	-677.4760742187501	-297.0885314941407	1463.790893554688	-533.9707031250001	-266.6158142089844	1424.5869140625	-527.8339233398439	-314.1521911621094	1404.377197265625	-498.4325561523439	-346.1255187988282	1346.5263671875	-471.564666748047	-399.1950073242189	1321.779541015625	-539.9808959960939	-234.7458190917969	1160.336669921875	-629.2144165039064	-214.8877563476563	1116.67578125	-563.7529296875001	-160.8125762939453	1137.617431640625	-651.9494628906251	-125.7061233520508	1038.085815429688	-966.4884033203127	-121.1771316528321	1041.170776367188	-729.2967529296876	-303.9514770507813	1146.215209960938	-835.6611938476565	-315.1745300292969	1115.21875	-862.9285278320315	-312.6507263183594	1115.512573242188	-805.5845336914065	-222.7110748291016	775.9871215820315	-1065.755004882813	-204.9318237304688	693.1051025390626	-1071.287231445313	-158.981918334961	686.4171752929689	-1052.616088867188	-240.875961303711	645.0105590820314	-1066.037841796875	-253.0665435791016	544.9242553710939	-1064.402221679688	-214.8572387695313	518.9830932617189	-947.4051513671877	-204.3765563964844	405.6996459960939	-1055.839477539063	-268.2474975585938	379.6828613281251	-1106.387573242188	-226.6911926269532	367.1578674316407	-1090.876342773438	-227.9298553466797	282.2131652832032	-1077.22216796875	-306.4211730957032	93.6138153076172	-1102.7119140625	-261.8051452636719	93.89965820312501	-1020.169250488281	-356.1851196289063	50.69936370849611	-1044.33154296875	-135.3150482177735	61.28113555908205	-1092.0869140625	-144.4451599121094	60.10061264038087	-1137.472290039063	-206.3126373291016	38.32283020019532	-1178.288940429688	-248.6160430908204	853.464782714844	-641.7933349609376	-213.9911041259766	797.9107055664065	-630.3914184570314	-180.4588775634766	796.6895141601565	-632.0116577148439	-243.9464569091797	719.2133789062501	-641.2786865234376	-247.5914001464844	539.6949462890626	-641.4757690429689	-197.5381774902344	508.9279174804689	-764.2288818359376	-198.1136627197266	322.2305908203126	-690.3756103515626	-250.1376190185547	256.6599731445313	-621.3240356445314	-212.1407928466797	245.070541381836	-647.6185913085939	-217.1414337158204	195.9158935546876	-675.1362304687501	-290.4193725585938	95.66135406494142	-632.9561157226564	-240.1966705322266	102.7736434936524	-713.8213500976564	-338.2573547363282	49.90486145019533	-702.4152832031251	-127.9153442382813	54.59126281738283	-641.3873901367189	-141.8729095458985	61.43408584594728	-590.8732910156251	-199.3684844970704	29.09015655517579	-552.3367309570314	
1117	5.58	-94.65835571289064	1778.559448242188	-780.7222290039065	-245.8384094238282	1705.601806640625	-849.2178955078127	-88.38381958007814	1785.369384765625	-923.337097167969	-259.8152160644532	1574.31005859375	-868.5468750000002	-286.0892944335938	1260.56005859375	-850.2534179687502	-106.9181137084961	1512.076171875	-845.7852172851565	-103.864616394043	1565.93359375	-1018.345153808594	-235.8463897705079	1457.282348632813	-1185.144287109375	-208.3880615234376	1415.014282226563	-1190.986938476563	-259.0965576171876	1401.884643554688	-1221.609741210938	-293.3717346191407	1328.309936523438	-1252.455200195313	-351.9649353027344	1329.271728515625	-1204.453857421875	-265.7710266113282	1146.877197265625	-1047.1044921875	-239.8523406982422	1091.089965820313	-1101.342163085938	-191.2778625488282	1157.291137695313	-1038.238403320313	-149.208984375	1583.903564453125	-677.5299072265626	-297.3850402832032	1463.6396484375	-533.9094848632814	-266.7158203125001	1424.4580078125	-527.7307128906251	-314.2326049804688	1404.21728515625	-498.4042053222657	-346.1220703125001	1346.425048828125	-471.4757080078126	-399.280242919922	1321.5986328125	-539.8374633789064	-234.6131286621094	1160.302856445313	-629.1478881835939	-214.8567810058594	1116.653076171875	-563.7290649414064	-160.9778900146485	1137.63427734375	-652.0809326171876	-125.5954513549805	1038.119750976563	-966.4378662109377	-121.2758712768555	1041.1025390625	-729.2750244140626	-303.9379577636719	1146.204467773438	-835.705505371094	-315.1728210449219	1115.166381835938	-862.9255981445315	-312.6350097656251	1115.461059570313	-805.5878906250002	-222.5280151367188	775.995056152344	-1065.799072265625	-204.7013244628907	693.0565185546876	-1071.284545898438	-158.7491455078125	686.4039306640626	-1052.69140625	-240.6927490234376	644.9707031250001	-1066.0498046875	-252.8949279785157	544.8921508789064	-1064.41748046875	-214.6062774658204	518.9511718750001	-947.4750976562502	-204.3217315673829	405.6546325683595	-1055.7919921875	-268.0990600585938	379.6411743164063	-1106.378173828125	-226.5163726806641	367.1199035644532	-1090.861206054688	-227.7525482177735	282.3108520507813	-1077.277099609375	-306.3858032226563	93.62444305419923	-1102.702270507813	-261.7070617675782	93.91140747070314	-1020.194763183594	-356.2223815917969	50.65684509277345	-1044.319213867188	-135.3251342773438	61.26350784301759	-1092.101684570313	-144.4271850585938	60.10649490356447	-1137.4716796875	-206.2919616699219	38.34490585327149	-1178.284790039063	-248.6360778808594	853.4685058593752	-641.8108520507814	-214.0594940185547	797.9539184570315	-630.3895263671876	-180.5166015625	796.6387939453127	-631.9862060546876	-244.0695953369141	719.2424316406251	-641.2147216796876	-247.9009704589844	539.6940307617189	-641.4442749023439	-197.7790069580079	508.9361267089845	-764.2573852539064	-198.175521850586	322.2931213378907	-690.4263916015626	-250.1624145507813	256.6843261718751	-621.3049926757814	-212.1961364746094	245.0804290771485	-647.6534423828126	-217.2225646972657	195.9437561035157	-675.1719360351564	-290.4222717285157	95.6864700317383	-632.9503173828126	-240.2237854003907	102.771957397461	-713.8505249023439	-338.2677612304688	49.858943939209	-702.4007568359376	-128.0025939941407	54.58324813842775	-641.3577880859376	-141.8586578369141	61.41208648681642	-590.8847656250001	-199.3577575683594	29.11842918395997	-552.3915405273439	
